<?xml version="1.0" encoding="UTF-8" standalone="no"?>
<!-- Created with Inkscape (http://www.inkscape.org/) -->

<svg
   width="1080"
   height="1080"
   viewBox="0 0 285.74999 285.75"
   version="1.1"
   id="svg1"
   xml:space="preserve"
   xmlns="http://www.w3.org/2000/svg"
   xmlns:svg="http://www.w3.org/2000/svg"><defs
     id="defs1" /><g
     id="layer1"
     style="mix-blend-mode:normal"><g
       id="g10"><path
         style="font-size:58.2083px;font-family:'Berlin Sans FB Demi';-inkscape-font-specification:'Berlin Sans FB Demi';fill:#1a1a1a;stroke:#000000;stroke-width:0.264583;stroke-linecap:round;stroke-linejoin:bevel;paint-order:stroke fill markers"
         d="m 101.53902,120.06296 -0.42891,0.0858 z"
         id="path10" /><path
         style="font-size:58.2083px;font-family:'Berlin Sans FB Demi';-inkscape-font-specification:'Berlin Sans FB Demi';fill:#1a1a1a;stroke:#000000;stroke-width:0.264583;stroke-linecap:round;stroke-linejoin:bevel;paint-order:stroke fill markers"
         d="m 100.93854,119.89139 11.49181,0.5147 z"
         id="path9" /><path
         style="font-size:58.2083px;font-family:'Berlin Sans FB Demi';-inkscape-font-specification:'Berlin Sans FB Demi';opacity:1;fill:#21334b;fill-opacity:1;stroke:#000000;stroke-width:0.264583;stroke-linecap:round;stroke-linejoin:bevel;paint-order:stroke fill markers"
         d="m 149.00899,119.46454 c -0.54949,0 -1.29794,0.0853 -2.24534,0.2558 -1.11793,0.20846 -1.86638,0.33159 -2.24534,0.36949 -1.61058,0.15158 -2.96536,0.22737 -4.06435,0.22737 -0.73897,0 -1.10846,0.20844 -1.10846,0.62529 0,2.16007 0.0853,5.40967 0.2558,9.74876 0.18952,4.3391 0.28422,7.59816 0.28422,9.77718 0,2.06533 -0.10421,5.16333 -0.31264,9.294 -0.18952,4.13067 -0.28422,7.2192 -0.28422,9.26559 0,0.58739 0.27474,0.88108 0.82423,0.88108 h 9.83403 c 0.51159,0 0.76739,-0.33159 0.76739,-0.99477 0,-2.19797 -0.0663,-5.49493 -0.19895,-9.89087 -0.11373,-4.39594 -0.17053,-7.6929 -0.17053,-9.89087 0,-0.28422 0.0758,-0.49265 0.22737,-0.62528 0.20843,0.11369 0.35054,0.22737 0.42634,0.34106 2.67167,3.42959 4.66121,6.02547 5.96862,7.78764 4.7749,6.30969 7.84449,10.38352 9.20874,12.22148 0.47371,0.62528 0.88109,0.93792 1.22215,0.93792 0.49265,0 1.23162,0.0379 2.21692,0.11369 0.98529,0.0758 1.72427,0.11369 2.21692,0.11369 0.45475,0 1.13689,-0.0189 2.04639,-0.0568 0.92845,-0.0379 1.62005,-0.0568 2.0748,-0.0568 0.54949,0 0.82424,-0.25529 0.82424,-0.76688 V 140.4121 c 0,-2.17903 0.0853,-5.42861 0.2558,-9.74876 0.18948,-4.33909 0.0913,-1.50015 0.0913,-3.66022 0,-0.58739 0.18447,-0.79532 -0.17554,-0.79532 -1.13688,0 -2.85168,0.0474 -5.14439,0.14211 -2.29271,0.0947 -4.00751,0.14211 -5.14439,0.14211 -0.39791,0 -0.59686,0.35055 -0.59686,1.05162 0,0.37939 -0.003,0.57416 -0.005,0.66714 0.0126,0.006 0.0503,0.32713 0.14625,2.16783 0.22737,3.99803 0.34106,6.99182 0.34106,8.98136 0,1.47795 -0.12316,2.21692 -0.36949,2.21692 -0.34106,0 -0.74844,-0.2937 -1.22214,-0.88109 -1.91375,-2.52009 -3.34433,-4.43384 -4.29173,-5.74125 l -10.60142,-14.52366 c -0.4737,-0.64423 -0.82424,-0.96635 -1.05162,-0.96635 z m 17.04909,8.74624 h -5.2e-4 -5.1e-4 v 5.2e-4 h -5.2e-4 v 5.1e-4 l -5.2e-4,5.2e-4 c -0.004,0.0111 -0.004,0.0651 -0.002,0.0734 h 5.1e-4 v -5.2e-4 c 0.001,-0.005 0.002,-0.0259 0.004,-0.0744 z"
         id="path8" /><path
         id="text6"
         style="font-size:58.2083px;font-family:'Berlin Sans FB Demi';-inkscape-font-specification:'Berlin Sans FB Demi';fill:#d8dbe0;fill-opacity:1;stroke:#000000;stroke-width:0.264583;stroke-linecap:round;stroke-linejoin:bevel;paint-order:stroke fill markers"
         d="m 134.4011,111.28571 c -1.04214,0 -2.6243,0.0569 -4.74648,0.17054 -2.10323,0.0947 -3.67592,0.14211 -4.71806,0.14211 h -0.90951 c -0.1705,0.0568 -0.25579,0.34106 -0.25579,0.85266 0,1.38321 -0.15263,12.21528 -0.11473,15.00063 0.0379,2.76641 0.0568,4.84122 0.0568,6.22443 0,0.83371 -0.89056,3.08853 -2.67167,6.76444 -1.32636,2.72851 -2.51062,5.03071 -3.55276,6.90656 -3.84645,-7.21919 -5.76967,-11.41618 -5.76967,-12.59096 0,-1.53479 0.10421,-3.83698 0.31264,-6.90656 0.22738,-3.08853 0.34107,-5.40019 0.34107,-6.93498 0,-0.39791 -0.23686,-0.59686 -0.71056,-0.59686 -1.15583,0 -2.88958,-0.0474 -5.20123,-0.14211 -2.31166,-0.0947 -4.03593,-0.14211 -5.17281,-0.14211 -0.37896,0 -0.56844,0.35055 -0.56844,1.05162 0,1.49689 -0.0568,3.75171 -0.17053,6.76444 -0.0947,2.99379 -0.14211,5.23913 -0.14211,6.73602 0,0.90951 1.7148,4.80333 5.14439,11.68146 2.17902,4.28225 4.34857,8.55452 6.50864,12.81782 0.24633,0.4737 0.5495,0.74844 0.90951,0.82424 0.36001,0.0758 1.81901,0.11421 4.37699,0.11421 2.02744,0 3.52433,-0.0384 4.49068,-0.11421 0.41683,-0.0379 0.65366,-0.0758 0.71056,-0.11369 0.0758,-0.0568 0.20842,-0.29369 0.3979,-0.71055 2.78536,-5.41913 4.91702,-9.47349 6.39496,-12.16411 3.73276,-7.46552 5.59914,-11.78568 5.59914,-12.96045 0,-1.47795 0.019,-3.6854 0.0568,-6.62234 0.0569,-2.95589 0.25683,-13.91112 0.25683,-15.37012 0,-0.45475 -0.28422,-0.68213 -0.85266,-0.68213 z" /></g></g></svg>
