<?xml version="1.0" encoding="UTF-8" standalone="no"?>
<!-- Created with Inkscape (http://www.inkscape.org/) -->

<svg
   width="1080"
   height="1080"
   viewBox="0 0 285.74999 285.75"
   version="1.1"
   id="svg1"
   xml:space="preserve"
   xmlns="http://www.w3.org/2000/svg"
   xmlns:svg="http://www.w3.org/2000/svg"><defs
     id="defs1" /><g
     id="layer1"
     style="mix-blend-mode:normal"><g
       id="g10"><path
         style="font-size:58.2083px;font-family:'Berlin Sans FB Demi';-inkscape-font-specification:'Berlin Sans FB Demi';fill:#1a1a1a;stroke:#000000;stroke-width:0.542281;stroke-linecap:round;stroke-linejoin:bevel;paint-order:stroke fill markers"
         d="m 72.32687,107.52592 -0.875864,0.1765 z"
         id="path10" /><path
         style="font-size:58.2083px;font-family:'Berlin Sans FB Demi';-inkscape-font-specification:'Berlin Sans FB Demi';fill:#1a1a1a;stroke:#000000;stroke-width:0.542281;stroke-linecap:round;stroke-linejoin:bevel;paint-order:stroke fill markers"
         d="m 71.100653,107.17299 23.466963,1.05878 z"
         id="path9" /><path
         style="font-size:58.2083px;font-family:'Berlin Sans FB Demi';-inkscape-font-specification:'Berlin Sans FB Demi';opacity:1;fill:#21334b;fill-opacity:1;stroke:#000000;stroke-width:0.542281;stroke-linecap:round;stroke-linejoin:bevel;paint-order:stroke fill markers"
         d="m 166.51906,106.98098 c -1.12209,0 -2.65047,0.17546 -4.58512,0.52621 -2.28288,0.42882 -3.81125,0.68211 -4.58511,0.76007 -3.2889,0.31182 -6.05545,0.46774 -8.29965,0.46774 -1.50902,0 -2.26354,0.42877 -2.26354,1.28628 0,4.4435 0.17419,11.12828 0.52237,20.05426 0.38701,8.926 0.58039,15.63024 0.58039,20.11272 0,4.2486 -0.21281,10.62153 -0.63843,19.11875 -0.38702,8.49724 -0.5804,14.85069 -0.5804,19.06033 0,1.20833 0.56104,1.81248 1.68313,1.81248 h 20.08167 c 1.0447,0 1.56705,-0.68212 1.56705,-2.04636 0,-4.52146 -0.13539,-11.30366 -0.40627,-20.34658 -0.23223,-9.04293 -0.34823,-15.82513 -0.34823,-20.34659 0,-0.58468 0.15479,-1.01343 0.46431,-1.28627 0.42563,0.23387 0.71582,0.46772 0.87061,0.70159 5.45571,7.05504 9.51846,12.39505 12.18827,16.02002 9.75063,12.97972 16.01891,21.36003 18.80479,25.14091 0.96735,1.28627 1.79925,1.9294 2.49571,1.9294 1.00602,0 2.51504,0.078 4.52709,0.23388 2.01202,0.15592 3.52105,0.23387 4.52707,0.23387 0.92863,0 2.3216,-0.0388 4.17885,-0.11685 1.89595,-0.078 3.30824,-0.11684 4.23686,-0.11684 1.12209,0 1.68316,-0.52515 1.68316,-1.57756 v -38.53006 c 0,-4.4825 0.17419,-11.16724 0.52235,-20.05426 0.38693,-8.92598 0.18644,-3.08597 0.18644,-7.52946 0,-1.20833 0.3767,-1.63606 -0.35847,-1.63606 -2.32157,0 -5.82329,0.0975 -10.50514,0.29232 -4.68185,0.19482 -8.18358,0.29234 -10.50514,0.29234 -0.81256,0 -1.21883,0.72113 -1.21883,2.1633 0,0.78044 -0.006,1.18111 -0.0105,1.37238 0.0258,0.0123 0.10278,0.67295 0.29865,4.45946 0.4643,8.22438 0.69647,14.38294 0.69647,18.47564 0,3.04029 -0.25151,4.56044 -0.75453,4.56044 -0.69647,0 -1.52835,-0.60417 -2.49568,-1.8125 -3.90799,-5.1841 -6.82932,-9.12089 -8.76396,-11.81037 l -21.64873,-29.87675 c -0.96732,-1.32525 -1.68315,-1.98788 -2.14748,-1.98788 z m 34.81525,17.99196 h -10e-4 -0.001 v 0.001 h -0.001 v 0.001 l -0.001,10e-4 c -0.008,0.0229 -0.008,0.13392 -0.005,0.15099 h 0.001 v -0.001 c 0.002,-0.0101 0.005,-0.0533 0.008,-0.15305 z"
         id="path8" /><path
         id="text6"
         style="font-size:58.2083px;font-family:'Berlin Sans FB Demi';-inkscape-font-specification:'Berlin Sans FB Demi';fill:#d8dbe0;fill-opacity:1;stroke:#000000;stroke-width:0.542281;stroke-linecap:round;stroke-linejoin:bevel;paint-order:stroke fill markers"
         d="m 139.43308,89.470176 c -2.12811,0 -5.35897,0.117046 -9.69259,0.350824 -4.29493,0.194807 -7.50644,0.292328 -9.63456,0.292328 h -1.85727 c -0.34818,0.116844 -0.52234,0.701601 -0.52234,1.754015 0,2.845421 -0.31168,25.128157 -0.23429,30.857917 0.0774,5.6908 0.11618,9.95891 0.11618,12.80432 0,1.71504 -1.81858,6.35344 -5.45571,13.91519 -2.70851,5.61284 -5.12684,10.34872 -7.25495,14.20755 -7.854685,-14.85067 -11.78201,-23.48433 -11.78201,-25.90098 0,-3.15722 0.212808,-7.89308 0.638424,-14.20754 0.464324,-6.35344 0.696487,-11.10877 0.696487,-14.266 0,-0.81854 -0.48368,-1.22781 -1.451003,-1.22781 -2.360275,0 -5.900693,-0.0975 -10.62122,-0.29234 -4.720549,-0.1948 -8.241612,-0.29232 -10.563178,-0.29232 -0.773859,0 -1.160789,0.72111 -1.160789,2.16328 0,3.07927 -0.115941,7.71768 -0.348231,13.91519 -0.193384,6.15855 -0.290203,10.77746 -0.290203,13.85672 0,1.87096 3.50172,9.88097 10.505149,24.03004 4.44969,8.80904 8.880036,17.59757 13.291028,26.36763 0.503023,0.97445 1.122115,1.53963 1.857276,1.69556 0.735161,0.15592 3.714531,0.23494 8.93807,0.23494 4.14015,0 7.19689,-0.079 9.17024,-0.23494 0.85119,-0.078 1.33481,-0.15593 1.451,-0.23388 0.15479,-0.11684 0.4256,-0.60415 0.81253,-1.46168 5.68788,-11.14773 10.04085,-19.48799 13.05889,-25.02288 7.62252,-15.35739 11.43378,-24.24442 11.43378,-26.66106 0,-3.04029 0.0388,-7.58126 0.11594,-13.62287 0.11617,-6.08059 0.52446,-28.616666 0.52446,-31.617989 0,-0.935469 -0.58039,-1.403215 -1.74118,-1.403215 z" /></g></g></svg>
